<mxfile host="Electron" modified="2023-06-04T13:13:42.915Z" agent="Mozilla/5.0 (Macintosh; Intel Mac OS X 10_15_7) AppleWebKit/537.36 (KHTML, like Gecko) draw.io/21.2.8 Chrome/112.0.5615.165 Electron/24.2.0 Safari/537.36" etag="V26tq0Vml8RJV5ETjmAM" version="21.2.8" type="device">
  <diagram name="第 1 页" id="IrSHBF4i6lEzjxUa9KWe">
    <mxGraphModel dx="611" dy="499" grid="1" gridSize="10" guides="1" tooltips="1" connect="1" arrows="1" fold="1" page="1" pageScale="1" pageWidth="827" pageHeight="1169" math="0" shadow="0">
      <root>
        <mxCell id="0" />
        <mxCell id="1" parent="0" />
        <mxCell id="WkcVYtYWA_B80eKqmp-8-4" value="" style="endArrow=classic;html=1;rounded=0;exitX=1;exitY=0.5;exitDx=0;exitDy=0;" edge="1" parent="1">
          <mxGeometry width="50" height="50" relative="1" as="geometry">
            <mxPoint x="120" y="200" as="sourcePoint" />
            <mxPoint x="320" y="200" as="targetPoint" />
          </mxGeometry>
        </mxCell>
        <mxCell id="WkcVYtYWA_B80eKqmp-8-5" value="&lt;ul&gt;&lt;li&gt;&lt;span style=&quot;background-color: initial; font-family: &amp;quot;Times New Roman&amp;quot;; font-size: 9px;&quot;&gt;Part No with expiry days &amp;lt;= 10 days&lt;/span&gt;&lt;/li&gt;&lt;li&gt;&lt;span style=&quot;font-size: 9px; font-family: &amp;quot;Times New Roman&amp;quot;; background-color: initial;&quot;&gt;Remove duplicates&lt;/span&gt;&lt;/li&gt;&lt;/ul&gt;" style="text;html=1;strokeColor=none;fillColor=none;align=left;verticalAlign=middle;whiteSpace=wrap;rounded=0;" vertex="1" parent="1">
          <mxGeometry x="180" y="160" width="140" height="30" as="geometry" />
        </mxCell>
        <mxCell id="WkcVYtYWA_B80eKqmp-8-35" style="edgeStyle=orthogonalEdgeStyle;rounded=0;orthogonalLoop=1;jettySize=auto;html=1;exitX=0.5;exitY=1;exitDx=0;exitDy=0;entryX=0.5;entryY=0;entryDx=0;entryDy=0;" edge="1" parent="1" source="WkcVYtYWA_B80eKqmp-8-10" target="WkcVYtYWA_B80eKqmp-8-24">
          <mxGeometry relative="1" as="geometry" />
        </mxCell>
        <mxCell id="WkcVYtYWA_B80eKqmp-8-38" style="edgeStyle=orthogonalEdgeStyle;rounded=0;orthogonalLoop=1;jettySize=auto;html=1;exitX=1;exitY=0.5;exitDx=0;exitDy=0;entryX=0;entryY=0.5;entryDx=0;entryDy=0;" edge="1" parent="1" source="WkcVYtYWA_B80eKqmp-8-10" target="WkcVYtYWA_B80eKqmp-8-37">
          <mxGeometry relative="1" as="geometry" />
        </mxCell>
        <mxCell id="WkcVYtYWA_B80eKqmp-8-10" value="Part No Candidates" style="rounded=1;whiteSpace=wrap;html=1;" vertex="1" parent="1">
          <mxGeometry x="320" y="160" width="80" height="80" as="geometry" />
        </mxCell>
        <mxCell id="WkcVYtYWA_B80eKqmp-8-15" value="Vendor" style="shape=cylinder3;whiteSpace=wrap;html=1;boundedLbl=1;backgroundOutline=1;size=15;" vertex="1" parent="1">
          <mxGeometry x="120" y="160" width="80" height="80" as="geometry" />
        </mxCell>
        <mxCell id="WkcVYtYWA_B80eKqmp-8-20" value="&lt;font style=&quot;font-size: 10px;&quot;&gt;Part No&lt;br&gt;Transaction date&lt;br&gt;Usage qty&lt;br&gt;item_type&lt;/font&gt;" style="text;html=1;align=left;verticalAlign=middle;resizable=0;points=[];autosize=1;strokeColor=none;fillColor=none;" vertex="1" parent="1">
          <mxGeometry x="320" y="360" width="100" height="70" as="geometry" />
        </mxCell>
        <mxCell id="WkcVYtYWA_B80eKqmp-8-36" style="edgeStyle=orthogonalEdgeStyle;rounded=0;orthogonalLoop=1;jettySize=auto;html=1;exitX=1;exitY=0.5;exitDx=0;exitDy=0;exitPerimeter=0;entryX=0;entryY=0.5;entryDx=0;entryDy=0;" edge="1" parent="1" source="WkcVYtYWA_B80eKqmp-8-21" target="WkcVYtYWA_B80eKqmp-8-24">
          <mxGeometry relative="1" as="geometry" />
        </mxCell>
        <mxCell id="WkcVYtYWA_B80eKqmp-8-21" value="Transaction" style="shape=cylinder3;whiteSpace=wrap;html=1;boundedLbl=1;backgroundOutline=1;size=15;" vertex="1" parent="1">
          <mxGeometry x="200" y="280" width="80" height="80" as="geometry" />
        </mxCell>
        <mxCell id="WkcVYtYWA_B80eKqmp-8-41" style="edgeStyle=orthogonalEdgeStyle;rounded=0;orthogonalLoop=1;jettySize=auto;html=1;exitX=1;exitY=0.5;exitDx=0;exitDy=0;entryX=0;entryY=0.5;entryDx=0;entryDy=0;" edge="1" parent="1" source="WkcVYtYWA_B80eKqmp-8-24" target="WkcVYtYWA_B80eKqmp-8-28">
          <mxGeometry relative="1" as="geometry" />
        </mxCell>
        <mxCell id="WkcVYtYWA_B80eKqmp-8-24" value="Filtered Table 2" style="rounded=0;whiteSpace=wrap;html=1;" vertex="1" parent="1">
          <mxGeometry x="320" y="280" width="80" height="80" as="geometry" />
        </mxCell>
        <mxCell id="WkcVYtYWA_B80eKqmp-8-44" style="edgeStyle=orthogonalEdgeStyle;rounded=0;orthogonalLoop=1;jettySize=auto;html=1;exitX=1;exitY=0.5;exitDx=0;exitDy=0;" edge="1" parent="1" source="WkcVYtYWA_B80eKqmp-8-28" target="WkcVYtYWA_B80eKqmp-8-33">
          <mxGeometry relative="1" as="geometry" />
        </mxCell>
        <mxCell id="WkcVYtYWA_B80eKqmp-8-28" value="Merged Table" style="rounded=0;whiteSpace=wrap;html=1;" vertex="1" parent="1">
          <mxGeometry x="440" y="280" width="80" height="80" as="geometry" />
        </mxCell>
        <mxCell id="WkcVYtYWA_B80eKqmp-8-39" style="edgeStyle=orthogonalEdgeStyle;rounded=0;orthogonalLoop=1;jettySize=auto;html=1;exitX=0.5;exitY=1;exitDx=0;exitDy=0;exitPerimeter=0;entryX=0.5;entryY=0;entryDx=0;entryDy=0;" edge="1" parent="1" source="WkcVYtYWA_B80eKqmp-8-30" target="WkcVYtYWA_B80eKqmp-8-37">
          <mxGeometry relative="1" as="geometry" />
        </mxCell>
        <mxCell id="WkcVYtYWA_B80eKqmp-8-30" value="GR" style="shape=cylinder3;whiteSpace=wrap;html=1;boundedLbl=1;backgroundOutline=1;size=15;" vertex="1" parent="1">
          <mxGeometry x="440" y="40" width="80" height="80" as="geometry" />
        </mxCell>
        <mxCell id="WkcVYtYWA_B80eKqmp-8-32" value="&lt;span style=&quot;font-size: 10px;&quot;&gt;On=&quot;Part No&quot;&lt;br&gt;Inner Join&lt;br&gt;&lt;/span&gt;" style="text;whiteSpace=wrap;html=1;" vertex="1" parent="1">
          <mxGeometry x="440" y="360" width="115" height="30" as="geometry" />
        </mxCell>
        <mxCell id="WkcVYtYWA_B80eKqmp-8-33" value="Visualization" style="ellipse;shape=cloud;whiteSpace=wrap;html=1;" vertex="1" parent="1">
          <mxGeometry x="560" y="280" width="120" height="80" as="geometry" />
        </mxCell>
        <mxCell id="WkcVYtYWA_B80eKqmp-8-42" style="edgeStyle=orthogonalEdgeStyle;rounded=0;orthogonalLoop=1;jettySize=auto;html=1;exitX=0.5;exitY=1;exitDx=0;exitDy=0;entryX=0.5;entryY=0;entryDx=0;entryDy=0;" edge="1" parent="1" source="WkcVYtYWA_B80eKqmp-8-37" target="WkcVYtYWA_B80eKqmp-8-28">
          <mxGeometry relative="1" as="geometry" />
        </mxCell>
        <mxCell id="WkcVYtYWA_B80eKqmp-8-37" value="Filtered Table 1" style="rounded=0;whiteSpace=wrap;html=1;" vertex="1" parent="1">
          <mxGeometry x="440" y="160" width="80" height="80" as="geometry" />
        </mxCell>
        <mxCell id="WkcVYtYWA_B80eKqmp-8-40" value="&lt;font style=&quot;font-size: 10px;&quot;&gt;Part No&lt;br&gt;GR date&lt;br&gt;GR qty&lt;br&gt;&lt;/font&gt;" style="text;html=1;align=left;verticalAlign=middle;resizable=0;points=[];autosize=1;strokeColor=none;fillColor=none;" vertex="1" parent="1">
          <mxGeometry x="530" y="170" width="60" height="60" as="geometry" />
        </mxCell>
        <mxCell id="WkcVYtYWA_B80eKqmp-8-46" value="&lt;ol&gt;&lt;li&gt;Same Part No has different Exp Days&lt;/li&gt;&lt;li&gt;For merge: Part No in both Table 1 &amp;amp; 2 are non-unique, can&#39;t merge&lt;/li&gt;&lt;li&gt;For group Part num by Category: Can&#39;t find the baseline Last Issued Date &amp;amp; Safety Qty&lt;/li&gt;&lt;/ol&gt;" style="text;html=1;align=left;verticalAlign=middle;resizable=0;points=[];autosize=1;strokeColor=none;fillColor=none;" vertex="1" parent="1">
          <mxGeometry x="290" y="430" width="520" height="80" as="geometry" />
        </mxCell>
      </root>
    </mxGraphModel>
  </diagram>
</mxfile>
